<!DOCTYPE svg PUBLIC "-//W3C//DTD SVG 1.1//EN" "http://www.w3.org/Graphics/SVG/1.1/DTD/svg11.dtd">
<!-- Uploaded to: SVG Repo, www.svgrepo.com, Transformed by: SVG Repo Mixer Tools -->
<svg width="800px" height="800px" viewBox="-4.8 -4.8 57.60 57.60" id="b" xmlns="http://www.w3.org/2000/svg" fill="#d3a78a" stroke="#d3a78a" stroke-width="2.4">
<g id="SVGRepo_bgCarrier" stroke-width="0" transform="translate(0,0), scale(1)">
<path transform="translate(-4.8, -4.8), scale(3.5999999999999996)" fill="#001a23" d="M9.166.33a2.25 2.25 0 00-2.332 0l-5.25 3.182A2.25 2.25 0 00.5 5.436v5.128a2.25 2.25 0 001.084 1.924l5.25 3.182a2.25 2.25 0 002.332 0l5.25-3.182a2.25 2.25 0 001.084-1.924V5.436a2.25 2.25 0 00-1.084-1.924L9.166.33z" strokewidth="0"/>
</g>
<g id="SVGRepo_tracerCarrier" stroke-linecap="round" stroke-linejoin="round"/>
<g id="SVGRepo_iconCarrier"> <defs> <style>.o{fill:none;stroke:#d3a78a;stroke-linecap:round;stroke-linejoin:round;}</style> </defs> <g id="c"> <line id="d" class="o" x1="13.1159" y1="11.7737" x2="13.1159" y2="36.2263"/> <line id="e" class="o" x1="8.8039" y1="16.8329" x2="8.8039" y2="31.1671"/> <line id="f" class="o" x1="4.5" y1="21.4705" x2="4.5" y2="26.5295"/> <line id="g" class="o" x1="17.4569" y1="16.8329" x2="17.4569" y2="31.1671"/> <line id="h" class="o" x1="21.9465" y1="21.4705" x2="21.9465" y2="26.5295"/> </g> <g id="i"> <line id="j" class="o" x1="34.6693" y1="11.7737" x2="34.6693" y2="36.2263"/> <line id="k" class="o" x1="30.3573" y1="16.8329" x2="30.3573" y2="31.1671"/> <line id="l" class="o" x1="26.0535" y1="21.4705" x2="26.0535" y2="26.5295"/> <line id="m" class="o" x1="39.0104" y1="16.8329" x2="39.0104" y2="31.1671"/> <line id="n" class="o" x1="43.5" y1="21.4705" x2="43.5" y2="26.5295"/> </g> </g>
</svg>